<svg width="32" height="32" viewBox="0 0 32 32" fill="none" xmlns="http://www.w3.org/2000/svg">
<g clip-path="url(#clip0_415_3)">
<circle cx="16" cy="16" r="15" fill="white" stroke="#53AE70" stroke-width="2"/>
<path d="M10.0903 17.025H9.13031V21H6.67031V10.605H10.0753C11.4953 10.605 12.5603 10.865 13.2703 11.385C13.9903 11.905 14.3503 12.7 14.3503 13.77C14.3503 14.44 14.1903 15 13.8703 15.45C13.5503 15.89 13.0453 16.265 12.3553 16.575L14.9953 21H12.2203L10.0903 17.025ZM9.13031 15.33H10.1653C10.7153 15.33 11.1253 15.205 11.3953 14.955C11.6753 14.705 11.8153 14.31 11.8153 13.77C11.8153 13.27 11.6653 12.905 11.3653 12.675C11.0753 12.445 10.6253 12.33 10.0153 12.33H9.13031V15.33ZM16.7531 18.54C17.1231 18.54 17.4381 18.675 17.6981 18.945C17.9681 19.205 18.1031 19.52 18.1031 19.89C18.1031 20.27 17.9681 20.595 17.6981 20.865C17.4381 21.125 17.1231 21.255 16.7531 21.255C16.3731 21.255 16.0481 21.125 15.7781 20.865C15.5181 20.595 15.3881 20.27 15.3881 19.89C15.3881 19.52 15.5181 19.205 15.7781 18.945C16.0481 18.675 16.3731 18.54 16.7531 18.54ZM19.5316 21V10.605H25.7266L25.4716 12.36H21.9916V15.12H25.0216V16.875H21.9916V21H19.5316Z" fill="black"/>
</g>
<defs>
<clipPath id="clip0_415_3">
<rect width="32" height="32" fill="white"/>
</clipPath>
</defs>
</svg>
